<svg width="327" height="54" viewBox="0 0 327 54" fill="none" xmlns="http://www.w3.org/2000/svg">
<path d="M2.74023 2.57978H1.74023V3.57978V50.9525V51.9525H2.74023H14.4181H15.4181V50.9525V32.6651H32.3787C37.7249 32.6651 42.4344 31.5254 45.8337 29.0375C49.2779 26.5168 51.271 22.687 51.271 17.5886C51.271 13.0147 49.4989 9.23005 46.4411 6.60268C43.3983 3.98817 39.156 2.57978 34.2908 2.57978H2.74023ZM127.237 29.0934V27.5693L125.839 28.1761L115.39 32.7103L114.788 32.9715V33.6277V36.064C114.788 46.0911 123.099 52.9 134.022 52.9C140.574 52.9 145.779 50.9403 149.341 47.2199C152.897 43.5061 154.69 38.1703 154.69 31.6651V3.57978V2.57978H153.69H130.949H129.949V3.57978V13.8664V14.8664H130.949H141.012V31.6651C141.012 35.0402 140.42 37.2447 139.329 38.6011C138.28 39.9058 136.611 40.6133 133.954 40.6133C131.756 40.6133 130.132 39.8399 129.033 38.4607C127.908 37.0488 127.237 34.8805 127.237 31.9358V29.0934ZM208.683 51.9525H209.683V50.9525V41.1396V40.1396H208.683H178.61V30.6348H205.542H206.542V29.6348V20.0249V19.0249H205.542H178.61V14.4604H208.41H209.41V13.4604V3.57978V2.57978H208.41H165.933H164.933V3.57978V50.9525V51.9525H165.933H208.683ZM270.839 14.586L271.416 14.2363V14.8664H272.416H291.835V50.9525V51.9525H292.835H304.513H305.513V50.9525V14.8664H325H326V13.8664V3.57978V2.57978H325H272.416H271.416V3.57978V13.5655L271.149 13.171C266.34 6.05825 257.31 1.7 245.531 1.7C236.731 1.7 229.276 3.97463 224.003 8.36032C218.707 12.7653 215.712 19.2176 215.712 27.3338C215.712 35.4177 218.708 41.8529 224.004 46.2488C229.277 50.6254 236.731 52.9 245.531 52.9C257.45 52.9 266.553 48.4029 271.292 41.2164L271.865 40.3479L270.974 39.8099L261.004 33.7868L260.137 33.2634L259.625 34.1363C257.199 38.2662 252.274 40.681 245.531 40.681C240.736 40.681 236.765 39.4675 234.014 37.2334C231.29 35.0211 229.663 31.7308 229.663 27.3338C229.663 22.9007 231.292 19.5936 234.015 17.374C236.766 15.1325 240.736 13.919 245.531 13.919C252.205 13.919 256.997 16.2662 259.423 20.334L259.939 21.1995L260.801 20.6768L270.839 14.586ZM33.9494 14.325C35.1579 14.325 35.9937 14.6725 36.5231 15.1853C37.0487 15.6945 37.3883 16.479 37.3883 17.5886C37.3883 18.7388 37.0446 19.5401 36.519 20.0551C35.9909 20.5725 35.1578 20.9198 33.9494 20.9198H15.4181V14.325H33.9494ZM53.1199 27.3338C53.1199 35.4177 56.1154 41.8529 61.4116 46.2488C66.6845 50.6254 74.1386 52.9 82.9389 52.9C91.7391 52.9 99.1932 50.6254 104.466 46.2488C109.762 41.8529 112.758 35.4177 112.758 27.3338C112.758 19.2176 109.763 12.7653 104.467 8.36032C99.1937 3.97463 91.7391 1.7 82.9389 1.7C74.1386 1.7 66.684 3.97463 61.4108 8.36032C56.1144 12.7653 53.1199 19.2176 53.1199 27.3338ZM82.9389 13.919C87.7343 13.919 91.7223 15.1326 94.4908 17.3758C97.2319 19.5969 98.8751 22.9041 98.8751 27.3338C98.8751 31.7274 97.2337 35.0179 94.4921 37.2316C91.7231 39.4674 87.7342 40.681 82.9389 40.681C78.1436 40.681 74.173 39.4675 71.4219 37.2334C68.6978 35.0211 67.0709 31.7308 67.0709 27.3338C67.0709 22.9007 68.6996 19.5936 71.4232 17.374C74.1738 15.1325 78.1435 13.919 82.9389 13.919Z" stroke="#24A9F4" stroke-width="2"/>
</svg>
