<svg width="328" height="35" viewBox="0 0 328 35" fill="none" xmlns="http://www.w3.org/2000/svg">
<path d="M24.5866 1.11585H15.3086L0 34.2768H8.58212L13.0355 24.4706H26.7669L31.2667 34.2768H39.9416L24.5866 1.11585ZM19.9012 8.79023L24.0763 17.8858H15.7725C17.1178 14.8539 18.5559 11.8221 19.9012 8.79023Z" fill="#101010"/>
<path d="M67.4421 34.2768C74.4006 34.2768 79.086 30.1553 79.086 23.9969C79.086 20.2544 77.0912 17.1278 74.1686 15.375C75.5603 14.0012 76.5345 11.9642 76.5345 9.59557C76.5345 4.28982 72.313 1.11585 66.004 1.11585H45.175V34.2768H67.4421ZM67.0246 19.6386C69.3905 19.6386 70.9677 21.1545 70.9677 23.6653C70.9677 26.1287 69.4369 27.6446 67.071 27.6446H53.1077V19.6386H67.0246ZM65.7257 7.79541C67.4421 7.79541 68.6482 8.74286 68.6482 10.4957C68.6482 12.2011 67.4421 13.1012 65.8185 13.1012H53.1077V7.79541H65.7257Z" fill="#101010"/>
<path d="M83.0668 17.7437C83.0668 28.6868 90.9067 34.94 102.643 34.94C114.38 34.94 122.22 28.6868 122.22 17.7437C122.22 6.75321 114.38 0.5 102.643 0.5C90.9067 0.5 83.0668 6.75321 83.0668 17.7437ZM102.643 7.65329C109.37 7.65329 114.148 11.1589 114.148 17.7437C114.148 24.2811 109.37 27.7867 102.643 27.7867C95.9168 27.7867 91.185 24.2811 91.185 17.7437C91.185 11.1589 95.9168 7.65329 102.643 7.65329Z" fill="#101010"/>
<path d="M153.394 19.0228C153.394 24.6127 149.544 27.7867 144.441 27.7867C139.014 27.7867 135.534 24.5654 135.534 19.0228V1.11585H127.602V19.2122C127.602 29.35 134.189 34.94 144.441 34.94C154.74 34.94 161.327 29.35 161.327 19.2122V1.11585H153.394V19.0228Z" fill="#101010"/>
<path d="M200.977 8.31651V1.11585H165.257V8.31651H179.128V34.2768H187.06V8.31651H200.977Z" fill="#101010"/>
<path d="M250.81 8.31651V1.11585H215.09V8.31651H228.961V34.2768H236.893V8.31651H250.81Z" fill="#101010"/>
<path d="M281.579 34.2768H289.512V1.11585H281.579V11.5379H263.719V1.11585H255.787V34.2768H263.719V18.7385H281.579V34.2768Z" fill="#101010"/>
<path d="M328 34.2768V27.4077H306.893V19.3544H325.866V12.6274H306.893V8.03227H327.814V1.11585H298.96V34.2768H328Z" fill="#101010"/>
</svg>
